<svg width="18" height="20" viewBox="0 0 18 20" fill="none" xmlns="http://www.w3.org/2000/svg">
<path d="M12 15V16C12 16.7956 11.6839 17.5587 11.1213 18.1213C10.5587 18.6839 9.79565 19 9 19C8.20435 19 7.44129 18.6839 6.87868 18.1213C6.31607 17.5587 6 16.7956 6 16V15M12 15H6M12 15H15.59C15.973 15 16.165 15 16.32 14.948C16.4658 14.8986 16.5982 14.8163 16.707 14.7074C16.8157 14.5984 16.8979 14.4659 16.947 14.32C17 14.164 17 13.972 17 13.586C17 13.417 17 13.333 16.986 13.252C16.9613 13.1006 16.9021 12.9569 16.813 12.832C16.765 12.765 16.705 12.705 16.586 12.586L16.196 12.196C16.1338 12.1337 16.0845 12.0598 16.0508 11.9785C16.0172 11.8972 15.9999 11.81 16 11.722V8C16 7.08075 15.8189 6.1705 15.4672 5.32122C15.1154 4.47194 14.5998 3.70026 13.9497 3.05025C13.2997 2.40024 12.5281 1.88463 11.6788 1.53284C10.8295 1.18106 9.91925 1 9 1C8.08075 1 7.17049 1.18106 6.32122 1.53284C5.47194 1.88463 4.70026 2.40024 4.05025 3.05025C3.40024 3.70026 2.88463 4.47194 2.53284 5.32122C2.18106 6.1705 2 7.08075 2 8V11.722C2.00006 11.81 1.98279 11.8972 1.94915 11.9785C1.91552 12.0598 1.8662 12.1337 1.804 12.196L1.414 12.586C1.294 12.706 1.235 12.765 1.188 12.831C1.09803 12.956 1.03814 13.1001 1.013 13.252C1 13.332 1 13.417 1 13.586C1 13.972 1 14.164 1.052 14.32C1.10133 14.4661 1.18378 14.5988 1.29289 14.7077C1.40201 14.8167 1.53484 14.8989 1.681 14.948C1.836 15 2.027 15 2.41 15H6" stroke="black" stroke-width="2" stroke-linecap="round" stroke-linejoin="round"/>
</svg>
