<svg width="33" height="33" viewBox="0 0 33 33" fill="none" xmlns="http://www.w3.org/2000/svg">
<path d="M5.5 26.125V13.75C5.5 13.3146 5.59762 12.9021 5.79287 12.5125C5.98812 12.1229 6.25716 11.8021 6.59998 11.55L14.8499 5.3625C15.3311 4.99583 15.8811 4.8125 16.4998 4.8125C17.1186 4.8125 17.6686 4.99583 18.1498 5.3625L26.3997 11.55C26.7434 11.8021 27.0129 12.1229 27.2082 12.5125C27.4034 12.9021 27.5006 13.3146 27.4997 13.75V26.125C27.4997 26.8813 27.2302 27.5289 26.6912 28.0679C26.1522 28.6069 25.505 28.8759 24.7497 28.875H20.6248C20.2352 28.875 19.9089 28.743 19.6458 28.479C19.3827 28.215 19.2507 27.8887 19.2498 27.5V20.625C19.2498 20.2354 19.1178 19.9091 18.8538 19.646C18.5898 19.3829 18.2635 19.2509 17.8748 19.25H15.1249C14.7353 19.25 14.409 19.382 14.1459 19.646C13.8828 19.91 13.7508 20.2363 13.7499 20.625V27.5C13.7499 27.8896 13.6179 28.2164 13.3539 28.4804C13.0899 28.7444 12.7636 28.8759 12.3749 28.875H8.24996C7.49372 28.875 6.84656 28.606 6.30849 28.0679C5.77041 27.5298 5.50092 26.8822 5.5 26.125Z" fill="black"/>
</svg>
