<svg width="27" height="26" viewBox="0 0 27 26" fill="none" xmlns="http://www.w3.org/2000/svg">
<path d="M7.875 7.875H18.875M7.875 13.375H16.125M21.625 1C22.719 1 23.7682 1.4346 24.5418 2.20818C25.3154 2.98177 25.75 4.03098 25.75 5.125V16.125C25.75 17.219 25.3154 18.2682 24.5418 19.0418C23.7682 19.8154 22.719 20.25 21.625 20.25H14.75L7.875 24.375V20.25H5.125C4.03098 20.25 2.98177 19.8154 2.20818 19.0418C1.4346 18.2682 1 17.219 1 16.125V5.125C1 4.03098 1.4346 2.98177 2.20818 2.20818C2.98177 1.4346 4.03098 1 5.125 1H21.625Z" stroke="black" stroke-width="2" stroke-linecap="round" stroke-linejoin="round"/>
</svg>
