<svg width="31" height="31" viewBox="0 0 31 31" fill="none" xmlns="http://www.w3.org/2000/svg">
<path fill-rule="evenodd" clip-rule="evenodd" d="M20.625 11C20.625 12.4587 20.0455 13.8576 19.0141 14.8891C17.9826 15.9205 16.5837 16.5 15.125 16.5C13.6663 16.5 12.2674 15.9205 11.2359 14.8891C10.2045 13.8576 9.625 12.4587 9.625 11C9.625 9.54131 10.2045 8.14236 11.2359 7.11091C12.2674 6.07946 13.6663 5.5 15.125 5.5C16.5837 5.5 17.9826 6.07946 19.0141 7.11091C20.0455 8.14236 20.625 9.54131 20.625 11ZM17.875 11C17.875 11.7293 17.5853 12.4288 17.0695 12.9445C16.5538 13.4603 15.8543 13.75 15.125 13.75C14.3957 13.75 13.6962 13.4603 13.1805 12.9445C12.6647 12.4288 12.375 11.7293 12.375 11C12.375 10.2707 12.6647 9.57118 13.1805 9.05546C13.6962 8.53973 14.3957 8.25 15.125 8.25C15.8543 8.25 16.5538 8.53973 17.0695 9.05546C17.5853 9.57118 17.875 10.2707 17.875 11Z" fill="black"/>
<path fill-rule="evenodd" clip-rule="evenodd" d="M15.125 0C6.77188 0 0 6.77188 0 15.125C0 23.4781 6.77188 30.25 15.125 30.25C23.4781 30.25 30.25 23.4781 30.25 15.125C30.25 6.77188 23.4781 0 15.125 0ZM2.75 15.125C2.75 17.9988 3.73037 20.6442 5.3735 22.7453C6.52773 21.2302 8.01646 20.0023 9.7235 19.1575C11.4305 18.3127 13.3097 17.8738 15.2144 17.875C17.0945 17.8728 18.9503 18.3 20.6403 19.124C22.3303 19.948 23.8097 21.1471 24.9659 22.6297C26.1572 21.0672 26.9594 19.2434 27.306 17.3093C27.6526 15.3752 27.5336 13.3864 26.9589 11.5074C26.3843 9.62835 25.3704 7.91319 24.0013 6.5038C22.6322 5.09441 20.9471 4.03131 19.0855 3.40245C17.224 2.77359 15.2394 2.59706 13.2961 2.88746C11.3527 3.17786 9.50646 3.92685 7.91006 5.07245C6.31365 6.21805 5.01299 7.72732 4.11569 9.47539C3.21839 11.2235 2.75025 13.1601 2.75 15.125ZM15.125 27.5C12.2841 27.5046 9.52895 26.5273 7.326 24.7335C8.21261 23.4638 9.39289 22.4272 10.7664 21.7119C12.1398 20.9965 13.6658 20.6237 15.2144 20.625C16.7436 20.6237 18.2511 20.9872 19.6116 21.6856C20.9721 22.3839 22.1463 23.3967 23.0367 24.64C20.8168 26.4921 18.0161 27.5045 15.125 27.5Z" fill="black"/>
</svg>
