<svg width="25" height="25" viewBox="0 0 25 25" fill="none" xmlns="http://www.w3.org/2000/svg">
<path d="M8.9375 17.875C6.43958 17.875 4.32575 17.0097 2.596 15.279C0.866251 13.5483 0.000917394 11.4345 7.27513e-07 8.9375C-0.000915939 6.4405 0.864417 4.32667 2.596 2.596C4.32758 0.865333 6.44142 0 8.9375 0C11.4336 0 13.5479 0.865333 15.2804 2.596C17.0129 4.32667 17.8778 6.4405 17.875 8.9375C17.875 9.94583 17.7146 10.8969 17.3938 11.7906C17.0729 12.6844 16.6375 13.475 16.0875 14.1625L23.7875 21.8625C24.0396 22.1146 24.1656 22.4354 24.1656 22.825C24.1656 23.2146 24.0396 23.5354 23.7875 23.7875C23.5354 24.0396 23.2146 24.1656 22.825 24.1656C22.4354 24.1656 22.1146 24.0396 21.8625 23.7875L14.1625 16.0875C13.475 16.6375 12.6844 17.0729 11.7906 17.3937C10.8969 17.7146 9.94583 17.875 8.9375 17.875ZM8.9375 15.125C10.6563 15.125 12.1174 14.5237 13.321 13.321C14.5246 12.1183 15.1259 10.6572 15.125 8.9375C15.1241 7.21783 14.5228 5.75713 13.321 4.55538C12.1193 3.35363 10.6581 2.75183 8.9375 2.75C7.21692 2.74817 5.75621 3.34996 4.55538 4.55538C3.35454 5.76079 2.75275 7.2215 2.75 8.9375C2.74725 10.6535 3.34904 12.1147 4.55538 13.321C5.76171 14.5273 7.22242 15.1287 8.9375 15.125Z" fill="black"/>
</svg>
