<svg width="33" height="33" viewBox="0 0 33 33" fill="none" xmlns="http://www.w3.org/2000/svg">
<path d="M29.96 2.03513L30.7713 2.84638C31.8892 3.96563 31.72 5.94975 30.3904 7.278L13.6608 24.0076L8.24054 25.9904C7.55991 26.2406 6.89716 25.9161 6.76241 25.2685C6.71702 25.0336 6.73846 24.7906 6.82429 24.5673L8.84554 19.1003L25.5284 2.416C26.858 1.08775 28.8422 0.915876 29.96 2.03513ZM12.9307 3.69888C13.1112 3.69888 13.29 3.73444 13.4569 3.80354C13.6237 3.87264 13.7753 3.97392 13.9029 4.1016C14.0306 4.22929 14.1319 4.38086 14.201 4.54769C14.2701 4.71451 14.3057 4.89331 14.3057 5.07388C14.3057 5.25444 14.2701 5.43324 14.201 5.60007C14.1319 5.76689 14.0306 5.91847 13.9029 6.04615C13.7753 6.17383 13.6237 6.27511 13.4569 6.34421C13.29 6.41331 13.1112 6.44888 12.9307 6.44888H7.43066C6.70132 6.44888 6.00185 6.73861 5.48612 7.25433C4.9704 7.77006 4.68066 8.46953 4.68066 9.19888V25.6989C4.68066 26.4282 4.9704 27.1277 5.48612 27.6434C6.00185 28.1591 6.70132 28.4489 7.43066 28.4489H23.9307C24.66 28.4489 25.3595 28.1591 25.8752 27.6434C26.3909 27.1277 26.6807 26.4282 26.6807 25.6989V20.1989C26.6807 19.8342 26.8255 19.4845 27.0834 19.2266C27.3413 18.9687 27.691 18.8239 28.0557 18.8239C28.4203 18.8239 28.7701 18.9687 29.0279 19.2266C29.2858 19.4845 29.4307 19.8342 29.4307 20.1989V25.6989C29.4307 27.1576 28.8512 28.5565 27.8198 29.588C26.7883 30.6194 25.3894 31.1989 23.9307 31.1989H7.43066C5.97197 31.1989 4.57303 30.6194 3.54158 29.588C2.51013 28.5565 1.93066 27.1576 1.93066 25.6989V9.19888C1.93066 7.74019 2.51013 6.34124 3.54158 5.30979C4.57303 4.27834 5.97197 3.69888 7.43066 3.69888H12.9307Z" fill="black"/>
</svg>
